<?xml version="1.0" encoding="UTF-8" standalone="no"?>
<svg
   width="2048"
   height="2048"
   viewBox="0 0 2048 2048"
   version="1.1"
   id="svg13521"
   sodipodi:docname="x.svg"
   inkscape:version="1.2.2 (b0a8486541, 2022-12-01)"
   inkscape:export-filename="x.svg"
   inkscape:export-xdpi="96"
   inkscape:export-ydpi="96"
   xmlns:inkscape="http://www.inkscape.org/namespaces/inkscape"
   xmlns:sodipodi="http://sodipodi.sourceforge.net/DTD/sodipodi-0.dtd"
   xmlns:xlink="http://www.w3.org/1999/xlink"
   xmlns="http://www.w3.org/2000/svg"
   xmlns:svg="http://www.w3.org/2000/svg">
  <defs
     id="defs13525">
    <linearGradient
       inkscape:collect="always"
       id="linearGradient2276">
      <stop
         style="stop-color:#ffffff;stop-opacity:1;"
         offset="0"
         id="stop2272" />
      <stop
         style="stop-color:#ffffff;stop-opacity:0;"
         offset="1"
         id="stop2274" />
    </linearGradient>
    <linearGradient
       inkscape:collect="always"
       xlink:href="#linearGradient2276"
       id="linearGradient2278"
       x1="-8.1554365"
       y1="1.9211468"
       x2="2036.0145"
       y2="2038.5115"
       gradientUnits="userSpaceOnUse" />
    <linearGradient
       inkscape:collect="always"
       xlink:href="#linearGradient2276"
       id="linearGradient2280"
       x1="-8.1554365"
       y1="1.9211468"
       x2="2036.0145"
       y2="2038.5115"
       gradientUnits="userSpaceOnUse" />
    <linearGradient
       inkscape:collect="always"
       xlink:href="#linearGradient2276"
       id="linearGradient2282"
       x1="-8.1554365"
       y1="1.9211468"
       x2="2036.0145"
       y2="2038.5115"
       gradientUnits="userSpaceOnUse" />
  </defs>
  <sodipodi:namedview
     id="namedview13523"
     pagecolor="#ffffff"
     bordercolor="#000000"
     borderopacity="0.25"
     inkscape:showpageshadow="2"
     inkscape:pageopacity="0.0"
     inkscape:pagecheckerboard="0"
     inkscape:deskcolor="#d1d1d1"
     showgrid="false"
     inkscape:zoom="0.29347694"
     inkscape:cx="1819.5637"
     inkscape:cy="1025.6342"
     inkscape:window-width="1920"
     inkscape:window-height="1052"
     inkscape:window-x="0"
     inkscape:window-y="0"
     inkscape:window-maximized="1"
     inkscape:current-layer="svg13521"
     showguides="false" />
  <rect
     width="2048"
     height="2048"
     fill="#EADDFF"
     rx="450"
     id="rect13511"
     style="fill:#0b2e29;fill-opacity:1" />
  <path
     d="m742.4,1268.2c-1.3,-3.7 -5.8,-16.9 -9.7,-28.6 -3.9,-11.7 -7.1,-22 -9.4,-34.7 -2.2,-12.7 -2.9,-28.2 -4.3,-100.5 -1.4,-72.2 -1,-201.1 0.3,-268.5 1.4,-67.4 1.6,-73.4 2.9,-80.7 1.3,-7.3 3.9,-16.1 7.2,-24.7 3.3,-8.5 7.2,-16.9 11.9,-24.6 4.7,-7.8 10.4,-15.3 17,-22.3 6.6,-7.1 14.4,-13.8 21.6,-19 7.2,-5.2 13.6,-9 22,-11.9 8.4,-2.8 19.6,-3.9 93.8,-7.6 74.2,-3.7 212.1,-4.2 288.2,-3.2 76,1 90.1,1.5 104.3,3.7 14.2,2.2 29,6.5 43.4,11.5 14.4,5 28.4,10.7 46.7,20.4 18.3,9.6 40.9,24.4 58.5,38.1 17.5,13.7 30.7,25.8 44.2,40.6 13.5,14.7 27.3,32.6 37.2,44.6 9.9,12 14.4,17.1 14.3,15.3 -0.1,-1.7 -1,-16.5 -3.4,-36.4 -2.5,-19.9 -7.2,-45.1 -13.5,-67.9 -6.3,-22.9 -14,-43.9 -25.2,-68.1 -11.2,-24.2 -26.5,-51.5 -46.5,-78.3 -20,-26.8 -45.9,-53.7 -71.7,-74.2 -25.7,-20.5 -51.5,-36.1 -80.7,-48.6 -29.1,-12.5 -62.6,-21.6 -107,-27.9 -44.4,-6.3 -102,-7.3 -168.6,-7.2 -66.6,0.1 -142.3,1.8 -192.4,8.9 -50.1,7.1 -77.7,14.5 -103.9,25.9 -26.2,11.3 -51.6,27 -77.5,48.5 -25.9,21.5 -52.7,51 -73.2,81.4 -20.5,30.4 -36.2,62.9 -46.3,90.4 -10.1,27.5 -16,50.2 -18.3,65.8 -2.3,15.6 -2.7,24 -3.2,66.5 -0.5,42.6 0.8,119.3 5.1,167 4.3,47.7 7.5,67.3 12.8,86.4 5.3,19.1 13,38 20.8,54.6 7.8,16.6 15.8,31.2 24.2,43.7 8.3,12.5 17.1,23.4 25.8,32.7 8.7,9.3 17.2,17.3 27.7,25.7 10.5,8.4 23.3,17.3 34.4,24.2 11.2,6.9 20.7,12.2 31.8,18.1 11.1,5.9 23.8,12.3 35.3,15.9 11.5,3.6 22.1,5 23.4,5.1"
     fill="#21005D"
     id="path13513"
     style="fill:url(#linearGradient2278);fill-opacity:1" />
  <path
     d="m1289.7,686.1c1.3,3.7 5.8,16.9 9.7,28.6 3.9,11.7 7.1,22 9.4,34.7 2.2,12.7 2.9,28.2 4.3,100.5 1.4,72.2 1,201.1 -0.3,268.5 -1.4,67.4 -1.6,73.4 -2.9,80.7 -1.3,7.3 -3.9,16.1 -7.2,24.7 -3.3,8.5 -7.2,16.9 -11.9,24.6 -4.7,7.8 -10.4,15.3 -17,22.3 -6.6,7.1 -14.4,13.8 -21.6,19 -7.2,5.2 -13.6,9 -22,11.9 -8.4,2.8 -19.6,3.9 -93.8,7.6 -74.2,3.7 -212.1,4.2 -288.2,3.2 -76,-1 -90.1,-1.5 -104.3,-3.7 -14.2,-2.2 -29,-6.5 -43.4,-11.5 -14.4,-5 -28.4,-10.7 -46.7,-20.4 -18.3,-9.6 -40.9,-24.4 -58.5,-38.1 -17.5,-13.7 -30.7,-25.8 -44.2,-40.6 -13.5,-14.7 -27.3,-32.6 -37.2,-44.6 -9.9,-12 -14.4,-17.1 -14.3,-15.3 0.1,1.7 1,16.5 3.4,36.4 2.5,19.9 7.2,45.1 13.5,67.9 6.3,22.9 14,43.9 25.2,68.1 11.2,24.2 26.5,51.5 46.5,78.3 20,26.8 45.9,53.7 71.7,74.2 25.7,20.5 51.5,36.1 80.7,48.6 29.1,12.5 62.6,21.6 107,27.9 44.4,6.3 102,7.3 168.6,7.2 66.6,-0.1 142.3,-1.8 192.4,-8.9 50.1,-7.1 77.7,-14.5 103.9,-25.9 26.2,-11.3 51.6,-27 77.5,-48.5 25.9,-21.5 52.7,-51 73.2,-81.4 20.5,-30.4 36.2,-62.9 46.3,-90.4 10.1,-27.5 16,-50.2 18.3,-65.8 2.3,-15.6 2.7,-24 3.2,-66.5 0.5,-42.6 -0.8,-119.3 -5.1,-167 -4.3,-47.7 -7.5,-67.3 -12.8,-86.4 -5.3,-19.1 -13,-38 -20.8,-54.6 -7.8,-16.6 -15.8,-31.2 -24.2,-43.7 -8.3,-12.5 -17.1,-23.4 -25.8,-32.7 -8.7,-9.3 -17.2,-17.3 -27.7,-25.7 -10.5,-8.4 -23.3,-17.3 -34.4,-24.2 -11.2,-6.9 -20.7,-12.2 -31.8,-18.1 -11.1,-5.9 -23.8,-12.3 -35.3,-15.9 -11.5,-3.6 -22.1,-5 -23.4,-5.1"
     fill="#21005D"
     id="path13515"
     style="fill:url(#linearGradient2282);fill-opacity:1" />
  <path
     id="rect15394-7"
     style="fill:#dde7ff;fill-opacity:1;stroke-width:1.0556"
     inkscape:transform-center-x="49.665859"
     inkscape:transform-center-y="55.707761"
     d="m 1100.5884,1118.8909 a 101.41109,100 47.481146 0 0 -5.1679,142.3296 101.41109,100 47.481146 0 0 9.7412,9.2278 l 202.2941,224.4545 a 101.41109,100 47.481146 0 0 9.1422,11.5656 101.41109,100 47.481146 0 0 142.2431,7.1631 101.41109,100 47.481146 0 0 5.1679,-142.3296 101.41109,100 47.481146 0 0 -14.4815,-13.048 L 1254.407,1141.7587 a 101.41109,100 47.481146 0 0 -11.5755,-15.7047 101.41109,100 47.481146 0 0 -142.2431,-7.1631 z" />
  <path
     id="rect15394"
     style="fill:url(#linearGradient2280);fill-opacity:1;stroke-width:1.0556"
     inkscape:transform-center-x="49.665859"
     inkscape:transform-center-y="55.707761"
     d="m 1142.7794,1119.4469 a 101.41109,100 47.481146 0 0 -5.1679,142.3296 101.41109,100 47.481146 0 0 9.7412,9.2278 l 202.2941,224.4545 a 101.41109,100 47.481146 0 0 9.1422,11.5656 101.41109,100 47.481146 0 0 142.2431,7.1631 101.41109,100 47.481146 0 0 5.1679,-142.3296 101.41109,100 47.481146 0 0 -14.4815,-13.048 L 1296.598,1142.3147 a 101.41109,100 47.481146 0 0 -11.5755,-15.7047 101.41109,100 47.481146 0 0 -142.2431,-7.1631 z" />
</svg>
